<mxfile host="app.diagrams.net" modified="2023-02-24T15:26:14.042Z" agent="5.0 (Windows)" etag="hnblNh-BDOLfhSJgiewf" version="20.8.23" type="github">
  <diagram id="C5RBs43oDa-KdzZeNtuy" name="Page-1">
    <mxGraphModel dx="612" dy="470" grid="1" gridSize="10" guides="1" tooltips="1" connect="1" arrows="1" fold="1" page="1" pageScale="1" pageWidth="827" pageHeight="1169" math="0" shadow="0">
      <root>
        <mxCell id="WIyWlLk6GJQsqaUBKTNV-0" />
        <mxCell id="WIyWlLk6GJQsqaUBKTNV-1" parent="WIyWlLk6GJQsqaUBKTNV-0" />
        <mxCell id="WIyWlLk6GJQsqaUBKTNV-2" value="" style="rounded=0;html=1;jettySize=auto;orthogonalLoop=1;fontSize=11;endArrow=block;endFill=0;endSize=8;strokeWidth=1;shadow=0;labelBackgroundColor=none;edgeStyle=orthogonalEdgeStyle;" parent="WIyWlLk6GJQsqaUBKTNV-1" source="WIyWlLk6GJQsqaUBKTNV-3" target="z3PvTWRAHvg-YfaUEhPE-0" edge="1">
          <mxGeometry relative="1" as="geometry">
            <mxPoint x="220" y="170" as="targetPoint" />
          </mxGeometry>
        </mxCell>
        <mxCell id="z3PvTWRAHvg-YfaUEhPE-4" style="edgeStyle=orthogonalEdgeStyle;rounded=0;orthogonalLoop=1;jettySize=auto;html=1;entryX=0.5;entryY=0;entryDx=0;entryDy=0;" edge="1" parent="WIyWlLk6GJQsqaUBKTNV-1" source="WIyWlLk6GJQsqaUBKTNV-3" target="z3PvTWRAHvg-YfaUEhPE-1">
          <mxGeometry relative="1" as="geometry" />
        </mxCell>
        <mxCell id="WIyWlLk6GJQsqaUBKTNV-3" value="TCP连接" style="rounded=1;whiteSpace=wrap;html=1;fontSize=12;glass=0;strokeWidth=1;shadow=0;" parent="WIyWlLk6GJQsqaUBKTNV-1" vertex="1">
          <mxGeometry x="160" y="80" width="120" height="40" as="geometry" />
        </mxCell>
        <mxCell id="z3PvTWRAHvg-YfaUEhPE-6" value="" style="edgeStyle=orthogonalEdgeStyle;rounded=0;orthogonalLoop=1;jettySize=auto;html=1;" edge="1" parent="WIyWlLk6GJQsqaUBKTNV-1" source="z3PvTWRAHvg-YfaUEhPE-0" target="z3PvTWRAHvg-YfaUEhPE-5">
          <mxGeometry relative="1" as="geometry" />
        </mxCell>
        <mxCell id="z3PvTWRAHvg-YfaUEhPE-0" value="服务端" style="rounded=0;whiteSpace=wrap;html=1;" vertex="1" parent="WIyWlLk6GJQsqaUBKTNV-1">
          <mxGeometry x="70" y="190" width="120" height="60" as="geometry" />
        </mxCell>
        <mxCell id="z3PvTWRAHvg-YfaUEhPE-8" value="" style="edgeStyle=orthogonalEdgeStyle;rounded=0;orthogonalLoop=1;jettySize=auto;html=1;" edge="1" parent="WIyWlLk6GJQsqaUBKTNV-1" source="z3PvTWRAHvg-YfaUEhPE-1" target="z3PvTWRAHvg-YfaUEhPE-7">
          <mxGeometry relative="1" as="geometry" />
        </mxCell>
        <mxCell id="z3PvTWRAHvg-YfaUEhPE-1" value="客户端" style="rounded=0;whiteSpace=wrap;html=1;" vertex="1" parent="WIyWlLk6GJQsqaUBKTNV-1">
          <mxGeometry x="250" y="190" width="120" height="60" as="geometry" />
        </mxCell>
        <mxCell id="z3PvTWRAHvg-YfaUEhPE-14" value="" style="edgeStyle=orthogonalEdgeStyle;rounded=0;orthogonalLoop=1;jettySize=auto;html=1;" edge="1" parent="WIyWlLk6GJQsqaUBKTNV-1" source="z3PvTWRAHvg-YfaUEhPE-5" target="z3PvTWRAHvg-YfaUEhPE-13">
          <mxGeometry relative="1" as="geometry" />
        </mxCell>
        <mxCell id="z3PvTWRAHvg-YfaUEhPE-5" value="&lt;div&gt;创建并绑定&lt;/div&gt;&lt;div&gt;welcomeSocket到指定ip地址和端口&lt;/div&gt;" style="rounded=0;whiteSpace=wrap;html=1;" vertex="1" parent="WIyWlLk6GJQsqaUBKTNV-1">
          <mxGeometry x="70" y="330" width="120" height="60" as="geometry" />
        </mxCell>
        <mxCell id="z3PvTWRAHvg-YfaUEhPE-10" value="" style="edgeStyle=orthogonalEdgeStyle;rounded=0;orthogonalLoop=1;jettySize=auto;html=1;" edge="1" parent="WIyWlLk6GJQsqaUBKTNV-1" source="z3PvTWRAHvg-YfaUEhPE-7" target="z3PvTWRAHvg-YfaUEhPE-9">
          <mxGeometry relative="1" as="geometry" />
        </mxCell>
        <mxCell id="z3PvTWRAHvg-YfaUEhPE-7" value="&lt;div&gt;创建&lt;/div&gt;&lt;div&gt;clientSocket&lt;/div&gt;" style="rounded=0;whiteSpace=wrap;html=1;" vertex="1" parent="WIyWlLk6GJQsqaUBKTNV-1">
          <mxGeometry x="250" y="330" width="120" height="60" as="geometry" />
        </mxCell>
        <mxCell id="z3PvTWRAHvg-YfaUEhPE-12" value="" style="edgeStyle=orthogonalEdgeStyle;rounded=0;orthogonalLoop=1;jettySize=auto;html=1;" edge="1" parent="WIyWlLk6GJQsqaUBKTNV-1" source="z3PvTWRAHvg-YfaUEhPE-9" target="z3PvTWRAHvg-YfaUEhPE-11">
          <mxGeometry relative="1" as="geometry">
            <Array as="points">
              <mxPoint x="310" y="830" />
              <mxPoint x="220" y="830" />
            </Array>
          </mxGeometry>
        </mxCell>
        <mxCell id="z3PvTWRAHvg-YfaUEhPE-17" style="rounded=0;orthogonalLoop=1;jettySize=auto;html=1;entryX=0.75;entryY=0;entryDx=0;entryDy=0;" edge="1" parent="WIyWlLk6GJQsqaUBKTNV-1" source="z3PvTWRAHvg-YfaUEhPE-9" target="z3PvTWRAHvg-YfaUEhPE-15">
          <mxGeometry relative="1" as="geometry" />
        </mxCell>
        <mxCell id="z3PvTWRAHvg-YfaUEhPE-9" value="通过serveraddr连接" style="rounded=0;whiteSpace=wrap;html=1;" vertex="1" parent="WIyWlLk6GJQsqaUBKTNV-1">
          <mxGeometry x="250" y="470" width="120" height="60" as="geometry" />
        </mxCell>
        <mxCell id="z3PvTWRAHvg-YfaUEhPE-11" value="成功后建立连接" style="rounded=0;whiteSpace=wrap;html=1;" vertex="1" parent="WIyWlLk6GJQsqaUBKTNV-1">
          <mxGeometry x="160" y="920" width="120" height="60" as="geometry" />
        </mxCell>
        <mxCell id="z3PvTWRAHvg-YfaUEhPE-16" value="" style="edgeStyle=orthogonalEdgeStyle;rounded=0;orthogonalLoop=1;jettySize=auto;html=1;" edge="1" parent="WIyWlLk6GJQsqaUBKTNV-1" source="z3PvTWRAHvg-YfaUEhPE-13" target="z3PvTWRAHvg-YfaUEhPE-15">
          <mxGeometry relative="1" as="geometry" />
        </mxCell>
        <mxCell id="z3PvTWRAHvg-YfaUEhPE-13" value="监听绑定ip端口" style="rounded=0;whiteSpace=wrap;html=1;" vertex="1" parent="WIyWlLk6GJQsqaUBKTNV-1">
          <mxGeometry x="70" y="470" width="120" height="60" as="geometry" />
        </mxCell>
        <mxCell id="z3PvTWRAHvg-YfaUEhPE-21" style="edgeStyle=orthogonalEdgeStyle;shape=connector;rounded=0;orthogonalLoop=1;jettySize=auto;html=1;labelBackgroundColor=default;strokeColor=default;fontFamily=Helvetica;fontSize=11;fontColor=default;endArrow=classic;entryX=0.5;entryY=0;entryDx=0;entryDy=0;" edge="1" parent="WIyWlLk6GJQsqaUBKTNV-1" source="z3PvTWRAHvg-YfaUEhPE-15" target="z3PvTWRAHvg-YfaUEhPE-11">
          <mxGeometry relative="1" as="geometry">
            <mxPoint x="190" y="900" as="targetPoint" />
            <Array as="points">
              <mxPoint x="130" y="830" />
              <mxPoint x="220" y="830" />
            </Array>
          </mxGeometry>
        </mxCell>
        <mxCell id="z3PvTWRAHvg-YfaUEhPE-15" value="&lt;div&gt;创建connectionSocket&lt;/div&gt;&lt;div&gt;自动分配其ip地址和端口&lt;br&gt;&lt;/div&gt;&lt;div&gt;并绑定clientaddr&lt;/div&gt;" style="rounded=0;whiteSpace=wrap;html=1;" vertex="1" parent="WIyWlLk6GJQsqaUBKTNV-1">
          <mxGeometry x="65" y="650" width="130" height="70" as="geometry" />
        </mxCell>
      </root>
    </mxGraphModel>
  </diagram>
</mxfile>
